<svg xmlns="http://www.w3.org/2000/svg" fill="none" viewBox="0 0 28 29" height="29" width="28">
<rect fill="#4A3CE1" rx="2.8" height="28" width="28" y="0.15625"></rect>
<g clip-path="url(#clip0_7866_6118)">
<path fill="white" d="M22.5776 7.5166C22.9436 7.5166 23.1722 7.91292 22.9889 8.22969L21.0688 11.5486C20.9272 11.7933 20.666 11.9439 20.3833 11.9439H15.7246L18.0537 7.91237C18.1952 7.66746 18.4566 7.5166 18.7394 7.5166H22.5776Z"></path>
<path fill="white" d="M17.4609 16.3713C17.8268 16.3713 18.0554 16.7675 17.8723 17.0843L15.864 20.5577C15.7791 20.7045 15.6223 20.795 15.4526 20.795H10.8852C10.7157 20.795 10.559 20.7046 10.474 20.5579L8.04992 16.3713L5.6295 12.1816C5.54454 12.0346 5.54454 11.8533 5.6295 11.7063L7.91274 7.75406C7.99763 7.60712 8.15445 7.5166 8.32416 7.5166H12.3458C12.7116 7.5166 12.9402 7.91267 12.7572 8.22943L10.7486 11.7063C10.6637 11.8533 10.6637 12.0346 10.7486 12.1816L13.0319 16.1338C13.1168 16.2808 13.2736 16.3713 13.4433 16.3713H17.4609Z"></path>
</g>
<defs>
<clipPath id="clip0_7866_6118">
<rect transform="translate(5.49219 7.51709)" fill="white" height="13.2784" width="17.9114"></rect>
</clipPath>
</defs>
</svg>
