<svg width="167" height="20" viewBox="0 0 167 20" fill="none" xmlns="http://www.w3.org/2000/svg">
<path d="M63.4682 0.34375H78.397L77.9697 2.79433C77.8336 3.87408 76.9229 4.71911 75.8102 4.7238H62.6325C61.656 4.75197 60.8486 5.41391 60.5951 6.31527L60.872 4.7238L61.3086 2.25914C61.4401 1.17939 62.3508 0.34375 63.4682 0.34375Z" fill="#42BA78"/>
<path d="M19.1332 3.14633L15.6686 6.4795C14.908 5.19318 13.6734 4.5641 11.9129 4.5641C8.10558 4.5641 5.84748 7.10857 5.84748 11.3102C5.84748 13.911 7.44833 15.4602 9.83788 15.4602C11.542 15.4602 13.0396 14.8312 14.3024 13.5683L16.9784 17.5306C15.0348 19.1831 12.5701 19.9999 9.54681 19.9999C6.84273 19.9999 4.71608 19.2394 3.14339 17.7183C1.5707 16.1691 0.782013 14.1223 0.782013 11.5731C0.782013 8.45122 1.88524 5.74714 4.11517 3.46087C6.3451 1.17461 9.02571 0.0244305 12.1993 0.0244305C15.462 0.0197359 17.3492 1.01968 19.1332 3.14633Z" fill="#42BA78"/>
<path d="M51.4899 0.342585C53.2738 0.342585 54.7714 0.868379 55.9779 1.91527C57.2126 2.96686 57.8135 4.33299 57.8135 6.00896C57.8135 8.9243 56.1094 11.2857 53.5086 12.4405L56.4474 19.6327H51.0909L48.5464 13.2292H46.2648L45.1381 19.6327H40.1478L43.5326 0.337891H51.4899V0.342585ZM47.7859 4.61936L46.9972 8.95247H49.9876C51.4852 8.95247 52.7199 7.92905 52.7199 6.35166C52.7199 5.2766 51.9594 4.61936 50.7763 4.61936H47.7859Z" fill="#42BA78"/>
<path d="M94.8123 2.25859L91.7138 6.01426C90.6904 5.04248 89.2961 4.54485 87.592 4.54485C86.0944 4.54485 85.0193 5.01901 85.0193 6.04243C85.0193 6.77478 85.6484 7.1973 87.8267 7.61512C92.0002 8.42728 93.5494 10.2159 93.5494 13.0233C93.5494 17.9573 89.3478 19.9807 85.1226 19.9807C81.8927 19.9807 79.3717 19.0371 77.5643 17.1451L80.6628 13.3378C81.1369 13.9951 81.8176 14.4927 82.7378 14.887C83.6579 15.2532 84.6015 15.4363 85.5217 15.4363C87.4371 15.4363 88.4088 14.9105 88.4088 13.8871C88.4088 13.1266 87.7516 12.7087 85.5217 12.2581C81.8223 11.4975 79.9821 9.7136 79.9821 6.87807C79.9821 4.91103 80.7191 3.25384 82.1885 1.96752C83.6814 0.657731 85.5451 0.000488281 87.8267 0.000488281C90.7937 0.000488281 93.1034 0.761012 94.8123 2.25859Z" fill="white"/>
<path d="M113.518 0.34082L112.757 4.72557H106.875L104.25 19.6356H99.2601L101.884 4.72557H96.002L96.7625 0.34082H113.518Z" fill="white"/>
<path d="M146.991 3.12239L143.526 6.45555C142.765 5.16923 141.531 4.54016 139.77 4.54016C135.963 4.54016 133.705 7.08463 133.705 11.2863C133.705 13.8871 135.306 15.4363 137.695 15.4363C139.399 15.4363 140.897 14.8072 142.16 13.5444L144.836 17.5066C142.892 19.1591 140.427 19.976 137.404 19.976C134.7 19.976 132.573 19.2155 131.001 17.6944C129.428 16.1452 128.639 14.0983 128.639 11.5492C128.639 8.42728 129.743 5.7232 131.973 3.43693C134.202 1.15536 136.883 0.000488281 140.061 0.000488281C143.315 0.000488281 145.207 0.995742 146.991 3.12239Z" fill="white"/>
<path d="M156.964 9.41547L166.245 0.34082H160.353L153.161 7.3874L154.4 0.34082H149.452L146.053 19.6309H151.006L152.058 13.6782L153.109 12.6407L157.461 19.6309H163.329L156.964 9.41547Z" fill="white"/>
<path d="M62.1617 7.79736H77.0905L76.6633 10.2479C76.5272 11.3277 75.6164 12.1727 74.5038 12.1774H61.3261C60.3496 12.2056 59.5421 12.8675 59.2886 13.7689L59.5656 12.1774L60.0022 9.71276C60.1337 8.633 61.0444 7.79736 62.1617 7.79736Z" fill="#42BA78"/>
<path d="M58.2494 19.633L58.686 17.1683C58.8221 16.0886 59.7328 15.2529 60.8502 15.2529H75.779L75.3518 17.7035C75.2156 18.7833 74.3049 19.6283 73.1922 19.633H58.2494Z" fill="#42BA78"/>
<path d="M38.6805 19.6403L33.3521 7.01653L30.5354 0.34082L28.5261 3.35944L17.6909 19.6309V19.6356H22.6813V19.6309H23.592L29.5636 10.6689L33.3474 19.6356L38.6805 19.6403Z" fill="#42BA78"/>
<path d="M128.511 19.3L123.178 6.6762L120.366 0.000488281L118.352 3.01911L107.517 19.2906V19.2953H112.507V19.2906H113.422L119.389 10.3286L123.173 19.2953L128.511 19.3Z" fill="white"/>
</svg>
