<svg width="175" height="45" viewBox="0 0 175 45" fill="none" xmlns="http://www.w3.org/2000/svg">
<circle cx="21.5269" cy="22.9209" r="20.4189" transform="rotate(120 21.5269 22.9209)" stroke="url(#paint0_linear_8706_3490)" strokeWidth="0.946236"/>
<circle cx="23.7885" cy="24.2266" r="17.8074" transform="rotate(120 23.7885 24.2266)" stroke="url(#paint1_linear_8706_3490)" strokeWidth="0.946236"/>
<circle cx="26.0502" cy="25.5324" r="15.1959" transform="rotate(120 26.0502 25.5324)" stroke="url(#paint2_linear_8706_3490)" strokeWidth="0.946236"/>
<circle cx="28.3118" cy="26.8382" r="12.5844" transform="rotate(120 28.3118 26.8382)" stroke="url(#paint3_linear_8706_3490)" strokeWidth="0.946236"/>
<circle cx="31.0464" cy="28.4171" r="9.42675" transform="rotate(120 31.0464 28.4171)" stroke="url(#paint4_linear_8706_3490)" strokeWidth="0.946236"/>
<path d="M52.0194 16.421V16.1939L53.1548 15.6262V7.84812L52.0194 7.28038V7.05328H56.1781C57.2189 7.05328 58.1084 7.23779 58.8464 7.60683C59.5845 7.97586 60.1428 8.4821 60.5213 9.12554C60.9092 9.76898 61.1032 10.4976 61.1032 11.3113C61.1032 12.0494 60.9755 12.7307 60.72 13.3552C60.474 13.9797 60.1239 14.5191 59.6697 14.9733C59.2155 15.4275 58.6809 15.7823 58.0658 16.0378C57.4602 16.2933 56.7978 16.421 56.0787 16.421H52.0194ZM55.8516 7.83392H54.4323V15.6404H56.0645C56.8215 15.6404 57.4744 15.4842 58.0232 15.172C58.5815 14.8503 59.0073 14.4008 59.3006 13.8236C59.6034 13.2369 59.7548 12.5462 59.7548 11.7513C59.7548 10.966 59.6034 10.2799 59.3006 9.69328C58.9978 9.09715 58.5531 8.63823 57.9664 8.3165C57.3892 7.99478 56.6843 7.83392 55.8516 7.83392ZM63.0249 16.421V16.1939L64.0326 15.7255V9.16812L63.0249 8.69973V8.47263H69.0855V10.4881H68.8584L68.1772 9.18231H65.2391V11.9501H67.3823L67.8081 10.9849H68.0352V13.6107H67.8081L67.3823 12.6597H65.2391V15.7113H68.5036L69.2133 14.1784H69.4404V16.421H63.0249ZM71.2843 16.421V16.1939L72.2921 15.7255V9.15392L71.2843 8.69973V8.47263H73.2714L78.083 14.3062V9.15392L76.8766 8.69973V8.47263H79.8572V8.69973L78.8637 9.15392V16.4778H78.3101L73.0727 10.1759V15.683L74.2934 16.1939V16.421H71.2843ZM83.1875 16.421V16.1939L84.4507 15.7255V9.18231H82.2649L81.5694 10.843H81.3423V8.47263H88.7798V10.843H88.5527L87.843 9.18231H85.6572V15.7255L86.9346 16.1939V16.421H83.1875ZM90.4157 16.421V16.1939L91.3524 15.7255V9.16812L90.4157 8.69973V8.47263H93.5241V8.69973L92.5589 9.16812V15.7255L93.5241 16.1939V16.421H90.4157ZM97.9152 16.563C97.4137 16.563 96.9784 16.5109 96.6094 16.4068C96.2498 16.3027 95.8808 16.1608 95.5023 15.981L95.3745 14.0649H95.6016L96.2687 15.3423C96.5431 15.5505 96.8223 15.6971 97.1062 15.7823C97.3995 15.858 97.6975 15.8959 98.0003 15.8959C98.5397 15.8959 98.9513 15.787 99.2352 15.5694C99.5285 15.3423 99.6752 15.0017 99.6752 14.5475C99.6752 14.2068 99.5853 13.9466 99.4055 13.7668C99.2257 13.5776 98.9608 13.4073 98.6107 13.2559C98.27 13.095 97.8489 12.8963 97.3474 12.6597C96.7513 12.3759 96.3208 12.0873 96.0558 11.7939C95.8003 11.5006 95.6726 11.0937 95.6726 10.5733C95.6726 10.1759 95.7909 9.80683 96.0274 9.46618C96.264 9.12554 96.5715 8.85113 96.95 8.64296C97.338 8.42532 97.7638 8.3165 98.2274 8.3165C98.6154 8.3165 98.975 8.36855 99.3062 8.47263C99.6373 8.56726 99.9638 8.69027 100.286 8.84167L100.385 10.6868H100.158L99.6184 9.52296C99.3913 9.33371 99.1737 9.1965 98.9655 9.11134C98.7573 9.02618 98.516 8.9836 98.2416 8.9836C97.7685 8.9836 97.3948 9.10188 97.1203 9.33844C96.8554 9.575 96.7229 9.88726 96.7229 10.2752C96.7229 10.5307 96.7844 10.7436 96.9074 10.9139C97.0305 11.0842 97.2197 11.2451 97.4752 11.3965C97.7401 11.5384 98.0808 11.7088 98.4971 11.9075C99.0365 12.163 99.467 12.3995 99.7887 12.6171C100.11 12.8253 100.342 13.0619 100.484 13.3268C100.636 13.5918 100.711 13.9277 100.711 14.3346C100.711 14.7698 100.588 15.1578 100.342 15.4984C100.106 15.8296 99.7745 16.0898 99.3487 16.2791C98.9324 16.4683 98.4545 16.563 97.9152 16.563ZM103.979 16.421V16.1939L105.242 15.7255V9.18231H103.056L102.361 10.843H102.134V8.47263H109.571V10.843H109.344L108.634 9.18231H106.449V15.7255L107.726 16.1939V16.421H103.979ZM111.136 16.421V16.1939L112.158 15.7255V9.16812L111.136 8.69973V8.47263H114.287C115.167 8.47263 115.858 8.65242 116.359 9.01199C116.87 9.37156 117.126 9.8636 117.126 10.4881C117.126 10.9518 116.979 11.3492 116.686 11.6804C116.402 12.0116 116.004 12.2718 115.493 12.461L117.693 15.7681L118.63 16.1939V16.421H116.615L114.315 12.8017H113.35V15.7113L114.287 16.1939V16.421H111.136ZM114.088 9.18231H113.35V12.092H114.159C114.67 12.092 115.077 11.9642 115.38 11.7088C115.692 11.4438 115.848 11.0842 115.848 10.6301C115.848 10.1475 115.692 9.7879 115.38 9.55134C115.077 9.30532 114.647 9.18231 114.088 9.18231ZM121.038 16.421V16.1939L122.145 15.7255V12.6313L119.547 9.12554L118.625 8.69973V8.47263H121.818V8.69973L120.967 9.12554V9.18231L123.025 11.9217L124.898 9.1965V9.15392L124.004 8.69973V8.47263H126.786V8.69973L125.849 9.13973L123.351 12.6881V15.7255L124.458 16.1939V16.421H121.038ZM128.908 10.8855L128.412 7.33715H129.689L129.192 10.8855H128.908ZM134.217 16.563C133.715 16.563 133.28 16.5109 132.911 16.4068C132.551 16.3027 132.182 16.1608 131.804 15.981L131.676 14.0649H131.903L132.57 15.3423C132.845 15.5505 133.124 15.6971 133.408 15.7823C133.701 15.858 133.999 15.8959 134.302 15.8959C134.841 15.8959 135.253 15.787 135.537 15.5694C135.83 15.3423 135.977 15.0017 135.977 14.5475C135.977 14.2068 135.887 13.9466 135.707 13.7668C135.527 13.5776 135.262 13.4073 134.912 13.2559C134.572 13.095 134.151 12.8963 133.649 12.6597C133.053 12.3759 132.622 12.0873 132.357 11.7939C132.102 11.5006 131.974 11.0937 131.974 10.5733C131.974 10.1759 132.093 9.80683 132.329 9.46618C132.566 9.12554 132.873 8.85113 133.252 8.64296C133.64 8.42532 134.065 8.3165 134.529 8.3165C134.917 8.3165 135.277 8.36855 135.608 8.47263C135.939 8.56726 136.265 8.69027 136.587 8.84167L136.687 10.6868H136.459L135.92 9.52296C135.693 9.33371 135.475 9.1965 135.267 9.11134C135.059 9.02618 134.818 8.9836 134.543 8.9836C134.07 8.9836 133.696 9.10188 133.422 9.33844C133.157 9.575 133.025 9.88726 133.025 10.2752C133.025 10.5307 133.086 10.7436 133.209 10.9139C133.332 11.0842 133.521 11.2451 133.777 11.3965C134.042 11.5384 134.382 11.7088 134.799 11.9075C135.338 12.163 135.769 12.3995 136.09 12.6171C136.412 12.8253 136.644 13.0619 136.786 13.3268C136.937 13.5918 137.013 13.9277 137.013 14.3346C137.013 14.7698 136.89 15.1578 136.644 15.4984C136.407 15.8296 136.076 16.0898 135.65 16.2791C135.234 16.4683 134.756 16.563 134.217 16.563Z" fill="white"/>
<path d="M52.4215 37.421V37.1182L53.9355 36.3612V25.9905L52.4215 25.2335V24.9307H57.1527V25.2335L55.6387 25.9905V36.3612L57.1527 37.1182V37.421H52.4215ZM59.6062 37.421V37.1182L60.9499 36.4937V27.7316L59.6062 27.126V26.8232H62.2557L68.6712 34.6012V27.7316L67.0626 27.126V26.8232H71.0368V27.126L69.7121 27.7316V37.4967H68.974L61.9908 29.0941V36.4369L63.6183 37.1182V37.421H59.6062ZM73.116 37.421V37.1182L74.4596 36.4937V27.7316L73.116 27.126V26.8232H75.7655L82.1809 34.6012V27.7316L80.5723 27.126V26.8232H84.5465V27.126L83.2218 27.7316V37.4967H82.4837L75.5005 29.0941V36.4369L77.128 37.1182V37.421H73.116ZM86.7204 37.421V37.1182L88.064 36.4937V27.7505L86.7204 27.126V26.8232H94.8012V29.5105H94.4984L93.59 27.7694H89.6726V31.4597H92.5302L93.098 30.1728H93.4008V33.6739H93.098L92.5302 32.406H89.6726V36.4748H94.0253L94.9715 34.4309H95.2743V37.421H86.7204ZM97.8275 37.421V37.1182L99.1901 36.4937V27.7505L97.8275 27.126V26.8232H102.029C103.202 26.8232 104.123 27.0629 104.792 27.5423C105.473 28.0217 105.814 28.6778 105.814 29.5105C105.814 30.1287 105.618 30.6586 105.227 31.1002C104.849 31.5417 104.319 31.8887 103.637 32.141L106.571 36.5505L107.82 37.1182V37.421H105.132L102.067 32.5952H100.78V36.4748L102.029 37.1182V37.421H97.8275ZM101.764 27.7694H100.78V31.649H101.859C102.54 31.649 103.082 31.4787 103.486 31.138C103.902 30.7847 104.111 30.3053 104.111 29.6997C104.111 29.0563 103.902 28.5769 103.486 28.2615C103.082 27.9334 102.508 27.7694 101.764 27.7694ZM115.293 37.6103C114.006 37.6103 112.896 37.3453 111.962 36.8154C111.029 36.2855 110.309 35.5664 109.805 34.658C109.3 33.737 109.048 32.6898 109.048 31.5165C109.048 30.6207 109.218 29.7691 109.559 28.9617C109.912 28.1416 110.385 27.4161 110.978 26.7853C111.584 26.1545 112.278 25.6561 113.06 25.2903C113.855 24.9244 114.694 24.7415 115.577 24.7415C116.208 24.7415 116.744 24.7856 117.185 24.8739C117.627 24.9496 118.018 25.0569 118.359 25.1956C118.712 25.3218 119.065 25.4732 119.419 25.6498L119.513 28.9617H119.173L118.018 26.6528C117.539 26.3122 117.116 26.0662 116.75 25.9148C116.397 25.7634 115.993 25.6877 115.539 25.6877C114.631 25.6877 113.817 25.9148 113.098 26.369C112.391 26.8232 111.83 27.4477 111.413 28.2425C111.01 29.0247 110.808 29.9268 110.808 30.9488C110.808 32.1473 111.003 33.1756 111.395 34.0335C111.798 34.8788 112.334 35.5285 113.003 35.9827C113.684 36.4243 114.435 36.6451 115.255 36.6451C115.949 36.6451 116.529 36.5505 116.996 36.3612C117.476 36.1594 117.898 35.9386 118.264 35.6989L119.4 33.6739H119.721L119.513 36.683C119.147 36.8722 118.769 37.0362 118.378 37.175C117.999 37.3138 117.564 37.421 117.072 37.4967C116.58 37.5724 115.987 37.6103 115.293 37.6103ZM122.779 37.421V37.1182L124.028 36.4937V27.7505L122.779 27.126V26.8232H126.924V27.126L125.637 27.7505V36.4937L126.924 37.1182V37.421H122.779ZM129.486 37.421V37.1182L130.848 36.4937V27.7505L129.486 27.126V26.8232H133.687C134.86 26.8232 135.781 27.0629 136.45 27.5423C137.131 28.0217 137.472 28.6778 137.472 29.5105C137.472 30.1287 137.276 30.6586 136.885 31.1002C136.507 31.5417 135.977 31.8887 135.296 32.141L138.229 36.5505L139.478 37.1182V37.421H136.791L133.725 32.5952H132.438V36.4748L133.687 37.1182V37.421H129.486ZM133.422 27.7694H132.438V31.649H133.517C134.198 31.649 134.741 31.4787 135.144 31.138C135.561 30.7847 135.769 30.3053 135.769 29.6997C135.769 29.0563 135.561 28.5769 135.144 28.2615C134.741 27.9334 134.167 27.7694 133.422 27.7694ZM146.327 37.6103C145.242 37.6103 144.277 37.3832 143.431 36.929C142.586 36.4748 141.917 35.8566 141.425 35.0744C140.946 34.2795 140.706 33.3837 140.706 32.387C140.706 31.5544 140.864 30.7847 141.179 30.0782C141.495 29.3717 141.924 28.7598 142.466 28.2425C143.009 27.7252 143.633 27.3278 144.34 27.0503C145.046 26.7601 145.797 26.615 146.592 26.615C147.412 26.615 148.055 26.697 148.522 26.861C149.001 27.0124 149.468 27.1954 149.922 27.4098L149.979 30.0404H149.676L148.692 28.2425C148.352 27.9902 148.011 27.8136 147.67 27.7126C147.33 27.6117 146.958 27.5612 146.554 27.5612C145.734 27.5612 145.002 27.7568 144.359 28.1479C143.728 28.539 143.229 29.0752 142.864 29.7565C142.498 30.4252 142.315 31.1759 142.315 32.0085C142.315 33.5099 142.7 34.6643 143.469 35.4718C144.251 36.2666 145.292 36.664 146.592 36.664C147.008 36.664 147.374 36.6325 147.689 36.5694C148.005 36.5063 148.308 36.3991 148.598 36.2477L149.866 34.2984H150.168L150.017 36.7965C149.55 37.0362 149.027 37.2318 148.446 37.3832C147.879 37.5346 147.172 37.6103 146.327 37.6103ZM153.142 37.421V37.1182L154.485 36.4937V27.7505L153.142 27.126V26.8232H157.627V27.126L156.094 27.7505V36.4748H160.201L161.317 33.7875H161.62V37.421H153.142ZM163.99 37.421V37.1182L165.334 36.4937V27.7505L163.99 27.126V26.8232H172.071V29.5105H171.768L170.86 27.7694H166.942V31.4597H169.8L170.368 30.1728H170.671V33.6739H170.368L169.8 32.406H166.942V36.4748H171.295L172.241 34.4309H172.544V37.421H163.99Z" fill="white"/>
<defs>
<linearGradient id="paint0_linear_8706_3490" x1="0.634871" y1="22.9209" x2="42.4189" y2="22.9209" gradientUnits="userSpaceOnUse">
<stop stop-color="#56F20E"/>
<stop offset="1" stop-color="#0960EB"/>
</linearGradient>
<linearGradient id="paint1_linear_8706_3490" x1="5.50806" y1="24.2266" x2="42.069" y2="24.2266" gradientUnits="userSpaceOnUse">
<stop stop-color="#56F20E"/>
<stop offset="1" stop-color="#0960EB"/>
</linearGradient>
<linearGradient id="paint2_linear_8706_3490" x1="10.3812" y1="25.5324" x2="41.7192" y2="25.5324" gradientUnits="userSpaceOnUse">
<stop stop-color="#56F20E"/>
<stop offset="1" stop-color="#0960EB"/>
</linearGradient>
<linearGradient id="paint3_linear_8706_3490" x1="15.2543" y1="26.8382" x2="41.3693" y2="26.8382" gradientUnits="userSpaceOnUse">
<stop stop-color="#56F20E"/>
<stop offset="1" stop-color="#0960EB"/>
</linearGradient>
<linearGradient id="paint4_linear_8706_3490" x1="21.1465" y1="28.4171" x2="40.9462" y2="28.4171" gradientUnits="userSpaceOnUse">
<stop stop-color="#56F20E"/>
<stop offset="1" stop-color="#0960EB"/>
</linearGradient>
</defs>
</svg>
