<svg width="27" height="26" viewBox="0 0 27 26" fill="none" xmlns="http://www.w3.org/2000/svg">
<path d="M12.7145 1.62482C12.9507 1.03667 13.7833 1.03667 14.0195 1.62482L16.5456 7.9155C16.6462 8.16595 16.8813 8.33673 17.1506 8.35499L23.914 8.81359C24.5463 8.85646 24.8036 9.64831 24.3172 10.0547L19.1151 14.4011C18.9079 14.5742 18.8182 14.8505 18.884 15.1123L20.5379 21.6864C20.6925 22.301 20.0189 22.7904 19.4821 22.4534L13.7409 18.849C13.5123 18.7055 13.2217 18.7055 12.9931 18.849L7.25186 22.4534C6.71509 22.7904 6.0415 22.301 6.19613 21.6864L7.84999 15.1123C7.91583 14.8505 7.82605 14.5742 7.61893 14.4011L2.41676 10.0547C1.93039 9.64831 2.18768 8.85646 2.82002 8.81359L9.58344 8.35499C9.85272 8.33673 10.0878 8.16595 10.1884 7.9155L12.7145 1.62482Z" fill="#FAAF1B"/>
</svg>
