<svg width="27" height="26" viewBox="0 0 27 26" fill="none" xmlns="http://www.w3.org/2000/svg">
<path d="M13.2205 1.88683L15.7467 8.17752L16.3992 7.9155L15.7467 8.17752C15.9478 8.67843 16.418 9.01999 16.9565 9.05651L23.7199 9.5151L18.5178 13.8616C18.1035 14.2077 17.924 14.7603 18.0556 15.2838L19.7095 21.8579L13.9682 18.2535C13.5111 17.9665 12.93 17.9665 12.4728 18.2535L6.73152 21.8579L8.38538 15.2838C8.51708 14.7603 8.3375 14.2077 7.92327 13.8616L2.7211 9.5151L9.48452 9.05651C10.0231 9.01999 10.4932 8.67843 10.6944 8.17751L13.2205 1.88683Z" stroke="#FAAF1B" stroke-width="1.40625"/>
<path d="M12.5701 1.62481C12.8063 1.03667 13.6389 1.03667 13.8751 1.62482L14.8435 4.03645C14.877 4.11976 14.8942 4.2087 14.8942 4.29847V18.392C14.8942 18.9449 14.2855 19.2815 13.8172 18.9875L13.5965 18.849C13.3679 18.7055 13.0773 18.7055 12.8488 18.849L7.10747 22.4534C6.5707 22.7904 5.89711 22.301 6.05174 21.6864L7.7056 15.1122C7.77144 14.8505 7.68166 14.5742 7.47454 14.4011L2.27237 10.0547C1.786 9.64831 2.04329 8.85646 2.67563 8.81359L9.43905 8.35499C9.70833 8.33673 9.94339 8.16595 10.044 7.9155L12.5701 1.62481Z" fill="#FAAF1B"/>
</svg>
