<svg width="237" height="73" viewBox="0 0 237 73" fill="none" xmlns="http://www.w3.org/2000/svg">
<path fill-rule="evenodd" clip-rule="evenodd" d="M5.0087 0C2.24266 0 0 2.24246 0 5.0087V64.6957C0 67.4619 2.24266 69.7044 5.0087 69.7044H68.0348C70.8008 69.7044 73.0435 67.4619 73.0435 64.6957V5.0087C73.0435 2.24246 70.8008 0 68.0348 0H5.0087ZM43.2334 58.3586C48.2364 58.3586 52.9402 56.4101 56.4783 52.8721C59.2826 50.0682 61.0875 46.5315 61.716 42.6934H63.1035C62.4636 46.8979 60.5103 50.777 57.4467 53.8412C53.6503 57.6375 48.6024 59.7284 43.2334 59.7284C37.8636 59.7284 32.8158 57.6375 29.0193 53.8412C25.222 50.0442 23.131 44.9967 23.131 39.6273C23.131 34.2578 25.222 29.2096 29.0193 25.4134C32.8158 21.6164 37.8636 19.5255 43.2334 19.5255C48.6024 19.5255 53.6503 21.6164 57.4467 25.4134C60.5103 28.4768 62.4636 32.3552 63.1035 36.5604H61.716C61.0875 32.7223 59.2826 29.1856 56.4783 26.3818C52.9402 22.8437 48.2364 20.8952 43.2334 20.8952C38.2296 20.8952 33.5258 22.8437 29.9878 26.3818C26.4497 29.9198 24.5014 34.6242 24.5014 39.6273C24.5014 44.6303 26.4497 49.3347 29.9878 52.8721C33.5258 56.4101 38.2296 58.3586 43.2334 58.3586ZM54.2927 50.6866C51.3391 53.6405 47.4106 55.2671 43.2334 55.2671C39.0554 55.2671 35.1277 53.6405 32.1742 50.6866C29.2198 47.7327 27.5927 43.805 27.5927 39.6272C27.5927 35.4495 29.219 31.5217 32.1742 28.5672C35.1277 25.6133 39.0554 23.9867 43.2334 23.9867C47.4106 23.9867 51.3391 25.6133 54.2927 28.5672C56.51 30.7848 57.9799 33.5517 58.5742 36.5603H59.969C59.3576 33.1839 57.7386 30.0766 55.2611 27.5988C52.0484 24.386 47.7766 22.617 43.2334 22.617C38.6894 22.617 34.4177 24.386 31.2049 27.5988C27.9921 30.8115 26.2231 35.0831 26.2231 39.6272C26.2231 44.1714 27.9921 48.4423 31.2049 51.655C34.4177 54.8678 38.6894 56.6368 43.2334 56.6368C47.7766 56.6368 52.0484 54.8678 55.2611 51.655C57.7386 49.1771 59.3576 46.0698 59.969 42.6934H58.575C57.9799 45.7021 56.51 48.4683 54.2927 50.6866ZM30.8625 39.6273C30.8625 46.4479 36.4117 51.9975 43.2334 51.9975C48.9954 51.9975 53.8516 48.0362 55.2187 42.6934H56.6274C55.2318 48.7984 49.7552 53.3672 43.2334 53.3672C35.656 53.3672 29.4921 47.204 29.4921 39.6273C29.4921 32.0505 35.656 25.8866 43.2334 25.8866C49.7552 25.8866 55.2318 30.4554 56.6274 36.5604H55.2187C53.8508 31.2177 48.9954 27.2563 43.2334 27.2563C36.4117 27.2563 30.8625 32.8066 30.8625 39.6273ZM18.5462 20.2817H10.2823V59.1001H18.5462V20.2817ZM14.4269 16.4435C16.9043 16.4435 18.9122 14.4351 18.9122 11.9576C18.9122 9.48006 16.9043 7.47165 14.4269 7.47165C11.9495 7.47165 9.94076 9.48006 9.94076 11.9576C9.94076 14.4351 11.9495 16.4435 14.4269 16.4435Z" fill="#18181B"/>
<path d="M91.6185 9.12783C90.6314 9.12783 89.8041 8.9858 89.1366 8.70174C88.4691 8.41058 87.9684 7.98449 87.6346 7.42348C87.3009 6.85536 87.134 6.15942 87.134 5.33565C87.134 4.12841 87.5175 3.19812 88.2844 2.54478C89.0514 1.88435 90.1592 1.55413 91.6079 1.55413C92.4317 1.55413 93.156 1.6713 93.7809 1.90565C94.413 2.14 94.903 2.47732 95.2509 2.91761C95.606 3.3579 95.7835 3.89051 95.7835 4.51543H94.1964C94.1964 4.16036 94.0863 3.86565 93.8662 3.6313C93.646 3.38985 93.3407 3.20877 92.9501 3.08804C92.5595 2.96732 92.1014 2.90696 91.5759 2.90696C91.0078 2.90696 90.5143 2.99928 90.0953 3.18391C89.6834 3.36145 89.3638 3.62065 89.1366 3.96152C88.9093 4.30239 88.7957 4.71428 88.7957 5.19717V5.46348C88.7957 5.95348 88.9093 6.37246 89.1366 6.72043C89.3638 7.0613 89.687 7.32406 90.1059 7.5087C90.5249 7.68623 91.0185 7.775 91.5866 7.775C92.1334 7.775 92.6021 7.71819 92.9927 7.60457C93.3904 7.48384 93.6957 7.3063 93.9088 7.07196C94.1289 6.83051 94.239 6.5358 94.239 6.18783H95.7942C95.7942 6.79855 95.6202 7.32406 95.2722 7.76435C94.9243 8.20464 94.4378 8.54196 93.8129 8.7763C93.188 9.01065 92.4565 9.12783 91.6185 9.12783ZM99.7037 9V3.10935H96.4548V1.68196H104.572V3.10935H101.323V9H99.7037ZM105.887 9V1.68196H111.682C112.2 1.68196 112.623 1.78848 112.949 2.00152C113.283 2.20746 113.532 2.48442 113.695 2.83239C113.858 3.17326 113.94 3.55319 113.94 3.97217C113.94 4.40536 113.826 4.8137 113.599 5.19717C113.379 5.57355 113.034 5.86826 112.566 6.0813L114.121 9H112.299L110.957 6.39022H107.506V9H105.887ZM107.506 5.04804H111.234C111.568 5.04804 111.824 4.95217 112.001 4.76043C112.186 4.56159 112.278 4.30949 112.278 4.00413C112.278 3.79819 112.239 3.6242 112.161 3.48217C112.083 3.33304 111.966 3.22297 111.809 3.15196C111.653 3.07384 111.461 3.03478 111.234 3.03478H107.506V5.04804ZM115.686 9V1.68196H117.305V7.57261H121.949V9H115.686ZM128.982 9V6.66717H126.595V5.61261H128.982V3.26913H130.036V5.61261H132.433V6.66717H130.036V9H128.982ZM137.014 9L140.678 1.68196H142.51L146.175 9H144.396L143.703 7.58326H139.368L138.675 9H137.014ZM140.007 6.27304H143.064L142.212 4.48348C142.176 4.40536 142.123 4.29174 142.052 4.14261C141.988 3.98638 141.921 3.83014 141.85 3.67391C141.786 3.51058 141.726 3.3721 141.669 3.25848C141.619 3.13775 141.591 3.07384 141.583 3.06674H141.498C141.434 3.20877 141.36 3.3721 141.275 3.55674C141.196 3.74138 141.118 3.91891 141.04 4.08935C140.969 4.25978 140.909 4.39471 140.859 4.49413L140.007 6.27304ZM147.466 9V1.68196H149.085V7.57261H153.729V9H147.466ZM155.867 9V3.10935H152.618V1.68196H160.735V3.10935H157.486V9H155.867ZM167.731 9V6.66717H165.345V5.61261H167.731V3.26913H168.785V5.61261H171.182V6.66717H168.785V9H167.731ZM176.541 9V1.68196H180.439C181.334 1.68196 182.101 1.82399 182.74 2.10804C183.386 2.385 183.88 2.79688 184.221 3.3437C184.569 3.88341 184.743 4.55094 184.743 5.3463C184.743 6.13457 184.569 6.8021 184.221 7.34891C183.88 7.88862 183.386 8.30051 182.74 8.58457C182.101 8.86152 181.334 9 180.439 9H176.541ZM178.16 7.64717H180.354C180.745 7.64717 181.103 7.60101 181.43 7.5087C181.764 7.41638 182.051 7.28145 182.293 7.10391C182.541 6.91928 182.733 6.69203 182.868 6.42217C183.003 6.14522 183.07 5.82565 183.07 5.46348V5.21848C183.07 4.8563 183.003 4.54029 182.868 4.27043C182.733 3.99348 182.541 3.76623 182.293 3.5887C182.051 3.40406 181.764 3.26558 181.43 3.17326C181.103 3.08094 180.745 3.03478 180.354 3.03478H178.16V7.64717ZM186.485 9V1.68196H193.889V3.03478H188.105V4.60065H193.25V5.95348H188.105V7.64717H193.974V9H186.485ZM195.713 9V1.68196H197.332V7.57261H201.976V9H195.713Z" fill="#18181B"/>
<path d="M87.09 41.1792V19.4548H93.4999V41.1792H87.09ZM98.8693 41.1792V19.4548H104.616L115.857 29.5908C116.047 29.7592 116.289 29.9907 116.584 30.2854C116.899 30.5802 117.215 30.8854 117.531 31.2012C117.868 31.5169 118.152 31.8116 118.383 32.0853H118.668C118.668 31.7064 118.657 31.2327 118.636 30.6644C118.636 30.096 118.636 29.5908 118.636 29.1487V19.4548H124.699V41.1792H119.046L108.058 31.2643C107.553 30.8222 107.026 30.3275 106.479 29.7802C105.932 29.2329 105.49 28.8014 105.153 28.4856H104.9C104.9 28.7593 104.9 29.2013 104.9 29.8118C104.921 30.4223 104.932 31.0748 104.932 31.7695V41.1792H98.8693ZM130.075 41.1792V19.4548H135.822L147.063 29.5908C147.253 29.7592 147.495 29.9907 147.79 30.2854C148.105 30.5802 148.421 30.8854 148.737 31.2012C149.074 31.5169 149.358 31.8116 149.589 32.0853H149.874C149.874 31.7064 149.863 31.2327 149.842 30.6644C149.842 30.096 149.842 29.5908 149.842 29.1487V19.4548H155.905V41.1792H150.253L139.264 31.2643C138.759 30.8222 138.233 30.3275 137.685 29.7802C137.138 29.2329 136.696 28.8014 136.359 28.4856H136.106C136.106 28.7593 136.106 29.2013 136.106 29.8118C136.127 30.4223 136.138 31.0748 136.138 31.7695V41.1792H130.075ZM161.281 41.1792V19.4548H183.89V24.2228H167.723V27.8857H181.869V32.4958H167.723V36.4112H184.143V41.1792H161.281ZM188.54 41.1792V19.4548H206.602C208.181 19.4548 209.486 19.7811 210.517 20.4337C211.549 21.0863 212.328 21.9494 212.854 23.0229C213.38 24.0755 213.643 25.2333 213.643 26.4963C213.643 27.8646 213.317 29.1171 212.665 30.2539C212.012 31.3696 211.033 32.2537 209.728 32.9063L214.149 41.1792H206.886L203.287 33.9483H194.95V41.1792H188.54ZM194.95 29.2119H204.486C205.265 29.2119 205.886 28.9803 206.349 28.5172C206.813 28.0541 207.044 27.4331 207.044 26.6542C207.044 26.149 206.939 25.7174 206.728 25.3596C206.518 24.9807 206.223 24.6965 205.844 24.507C205.465 24.3176 205.013 24.2228 204.486 24.2228H194.95V29.2119ZM99.7836 69.5581C96.7523 69.5581 94.2262 69.1371 92.2053 68.2951C90.1844 67.432 88.6688 66.1689 87.6583 64.5059C86.6479 62.8429 86.1427 60.78 86.1427 58.317C86.1427 54.7173 87.3005 51.9492 89.6161 50.0125C91.9527 48.0548 95.3524 47.0759 99.8151 47.0759C102.299 47.0759 104.488 47.4548 106.383 48.2127C108.278 48.9495 109.751 50.002 110.804 51.3703C111.877 52.7175 112.414 54.3174 112.414 56.1698H106.162C106.162 55.2647 105.888 54.4963 105.341 53.8648C104.815 53.2122 104.067 52.7175 103.099 52.3807C102.131 52.0229 101.005 51.8439 99.7204 51.8439C98.2048 51.8439 96.9312 52.1071 95.8997 52.6333C94.8682 53.1385 94.0788 53.8437 93.5315 54.7489C93.0052 55.6541 92.7421 56.7066 92.7421 57.9065V58.6959C92.7421 59.8958 93.0052 60.9589 93.5315 61.8851C94.0788 62.7903 94.8577 63.506 95.8681 64.0323C96.8996 64.5375 98.1521 64.7901 99.6257 64.7901C101.015 64.7901 102.204 64.6322 103.194 64.3165C104.204 63.9797 104.973 63.4955 105.499 62.864C106.046 62.2325 106.32 61.4746 106.32 60.5905H112.446C112.446 62.3798 111.93 63.9481 110.898 65.2953C109.867 66.6426 108.404 67.6951 106.509 68.4529C104.636 69.1897 102.394 69.5581 99.7836 69.5581ZM116.847 69.1792V47.4548H123.257V69.1792H116.847ZM128.626 69.1792V47.4548H146.688C148.266 47.4548 149.572 47.7811 150.603 48.4337C151.635 49.0863 152.413 49.9494 152.94 51.0229C153.466 52.0755 153.729 53.2333 153.729 54.4963C153.729 55.8646 153.403 57.1171 152.75 58.2539C152.098 59.3696 151.119 60.2537 149.814 60.9063L154.234 69.1792H146.972L143.372 61.9483H135.036V69.1792H128.626ZM135.036 57.2119H144.572C145.351 57.2119 145.972 56.9803 146.435 56.5172C146.898 56.0541 147.13 55.4331 147.13 54.6542C147.13 54.149 147.024 53.7174 146.814 53.3596C146.603 52.9807 146.309 52.6965 145.93 52.507C145.551 52.3176 145.098 52.2228 144.572 52.2228H135.036V57.2119ZM170.737 69.5581C167.706 69.5581 165.18 69.1371 163.159 68.2951C161.138 67.432 159.622 66.1689 158.612 64.5059C157.602 62.8429 157.096 60.78 157.096 58.317C157.096 54.7173 158.254 51.9492 160.57 50.0125C162.906 48.0548 166.306 47.0759 170.769 47.0759C173.253 47.0759 175.442 47.4548 177.337 48.2127C179.231 48.9495 180.705 50.002 181.757 51.3703C182.831 52.7175 183.368 54.3174 183.368 56.1698H177.116C177.116 55.2647 176.842 54.4963 176.295 53.8648C175.768 53.2122 175.021 52.7175 174.053 52.3807C173.084 52.0229 171.958 51.8439 170.674 51.8439C169.158 51.8439 167.885 52.1071 166.853 52.6333C165.822 53.1385 165.033 53.8437 164.485 54.7489C163.959 55.6541 163.696 56.7066 163.696 57.9065V58.6959C163.696 59.8958 163.959 60.9589 164.485 61.8851C165.033 62.7903 165.811 63.506 166.822 64.0323C167.853 64.5375 169.106 64.7901 170.579 64.7901C171.969 64.7901 173.158 64.6322 174.147 64.3165C175.158 63.9797 175.926 63.4955 176.453 62.864C177 62.2325 177.274 61.4746 177.274 60.5905H183.399C183.399 62.3798 182.884 63.9481 181.852 65.2953C180.821 66.6426 179.358 67.6951 177.463 68.4529C175.589 69.1897 173.348 69.5581 170.737 69.5581ZM187.8 69.1792V47.4548H194.21V64.0007H208.167V69.1792H187.8ZM211.606 69.1792V47.4548H234.214V52.2228H218.047V55.8857H232.193V60.4958H218.047V64.4112H234.467V69.1792H211.606Z" fill="#18181B"/>
</svg>
