<svg width="30" height="30" viewBox="0 0 30 30" fill="none" xmlns="http://www.w3.org/2000/svg">
<rect width="30" height="30" rx="15" fill="white"/>
<path d="M14.6124 9.80778C14.7278 9.85956 14.8258 9.9436 14.8946 10.0498C14.9633 10.156 15 10.2798 15 10.4063V19.5938C14.9999 19.7202 14.9632 19.8439 14.8945 19.95C14.8257 20.0561 14.7278 20.1401 14.6124 20.1918C14.4971 20.2436 14.3692 20.2609 14.2443 20.2417C14.1193 20.2226 14.0025 20.1677 13.908 20.0838L11.1412 17.625H9.75C9.51794 17.625 9.29538 17.5328 9.13128 17.3687C8.96719 17.2046 8.875 16.9821 8.875 16.75V13.25C8.875 13.018 8.96719 12.7954 9.13128 12.6313C9.29538 12.4672 9.51794 12.375 9.75 12.375H11.1412L13.908 9.91628C14.0025 9.83226 14.1192 9.77733 14.2442 9.75808C14.3691 9.73883 14.497 9.75609 14.6124 9.80778ZM19.3313 10.6688C19.2712 10.6043 19.1987 10.5526 19.1182 10.5167C19.0377 10.4808 18.9508 10.4616 18.8627 10.46C18.7746 10.4585 18.6871 10.4747 18.6054 10.5077C18.5236 10.5407 18.4494 10.5898 18.3871 10.6521C18.3248 10.7144 18.2756 10.7887 18.2426 10.8704C18.2096 10.9521 18.1934 11.0396 18.195 11.1277C18.1965 11.2158 18.2158 11.3027 18.2517 11.3832C18.2876 11.4637 18.3393 11.5362 18.4038 11.5963C18.8509 12.0432 19.2056 12.5738 19.4476 13.1578C19.6895 13.7419 19.8141 14.3678 19.8141 15C19.8141 15.6322 19.6895 16.2582 19.4476 16.8422C19.2056 17.4262 18.8509 17.9569 18.4038 18.4038C18.3393 18.4639 18.2876 18.5363 18.2517 18.6168C18.2158 18.6973 18.1965 18.7842 18.195 18.8723C18.1934 18.9604 18.2096 19.048 18.2426 19.1297C18.2756 19.2114 18.3248 19.2856 18.3871 19.3479C18.4494 19.4102 18.5236 19.4594 18.6054 19.4924C18.6871 19.5254 18.7746 19.5416 18.8627 19.54C18.9508 19.5385 19.0377 19.5192 19.1182 19.4833C19.1987 19.4475 19.2712 19.3958 19.3313 19.3313C19.9001 18.7625 20.3513 18.0873 20.6591 17.3441C20.967 16.6009 21.1254 15.8044 21.1254 15C21.1254 14.1956 20.967 13.3991 20.6591 12.6559C20.3513 11.9128 19.9001 11.2375 19.3313 10.6688Z" fill="#18181B"/>
<path d="M17.4745 12.5255C17.4144 12.461 17.342 12.4093 17.2615 12.3735C17.181 12.3376 17.0941 12.3183 17.006 12.3168C16.9178 12.3152 16.8303 12.3314 16.7486 12.3644C16.6669 12.3974 16.5927 12.4465 16.5303 12.5089C16.468 12.5712 16.4189 12.6454 16.3859 12.7271C16.3529 12.8088 16.3367 12.8964 16.3382 12.9845C16.3398 13.0726 16.3591 13.1595 16.3949 13.24C16.4308 13.3205 16.4825 13.3929 16.547 13.453C16.7502 13.6562 16.9114 13.8973 17.0213 14.1628C17.1313 14.4282 17.1879 14.7127 17.1879 15C17.1879 15.2873 17.1313 15.5718 17.0213 15.8373C16.9114 16.1027 16.7502 16.3439 16.547 16.547C16.4825 16.6071 16.4308 16.6796 16.3949 16.76C16.3591 16.8405 16.3398 16.9274 16.3382 17.0156C16.3367 17.1037 16.3529 17.1912 16.3859 17.2729C16.4189 17.3546 16.468 17.4289 16.5303 17.4912C16.5927 17.5535 16.6669 17.6026 16.7486 17.6356C16.8303 17.6686 16.9178 17.6848 17.006 17.6833C17.0941 17.6817 17.181 17.6624 17.2615 17.6266C17.342 17.5907 17.4144 17.539 17.4745 17.4745C18.1306 16.8182 18.4993 15.9281 18.4993 15C18.4993 14.0719 18.1306 13.1819 17.4745 12.5255Z" fill="#18181B"/>
</svg>
